<?xml version="1.0" standalone="no"?>
<!DOCTYPE svg PUBLIC "-//W3C//DTD SVG 20010904//EN"
 "http://www.w3.org/TR/2001/REC-SVG-20010904/DTD/svg10.dtd">
<svg version="1.0" xmlns="http://www.w3.org/2000/svg"
 width="5001.000000pt" height="5001.000000pt" viewBox="0 0 5001.000000 5001.000000"
 preserveAspectRatio="xMidYMid meet">

<g transform="translate(0.000000,5001.000000) scale(0.100000,-0.100000)"
fill="#000000" stroke="none">
<path d="M13090 40231 c-25 -9 -50 -20 -57 -24 -21 -13 -44 -101 -53 -201 -6
-57 -16 -108 -25 -122 -8 -13 -26 -57 -40 -98 -24 -73 -25 -81 -25 -363 0
-273 1 -292 24 -363 12 -41 31 -91 42 -110 18 -33 19 -68 25 -520 6 -526 7
-528 67 -647 12 -22 25 -61 28 -85 5 -29 17 -52 37 -70 27 -26 36 -28 106 -28
89 0 204 30 297 78 32 17 83 40 113 52 30 12 67 30 82 41 16 11 74 40 131 65
l103 45 175 11 c215 13 322 13 512 -1 127 -9 154 -14 199 -37 29 -14 70 -32
92 -40 22 -8 58 -26 81 -40 22 -14 61 -38 86 -53 58 -36 110 -127 146 -259 35
-130 40 -224 19 -342 -9 -52 -23 -129 -30 -172 -17 -97 -45 -139 -131 -195
-37 -24 -72 -43 -77 -43 -5 0 -37 -13 -71 -29 -33 -16 -95 -37 -136 -46 -99
-24 -355 -31 -475 -15 -49 7 -182 16 -295 19 -187 6 -209 9 -249 30 -24 13
-62 29 -84 37 -22 8 -62 28 -88 44 -27 16 -79 39 -115 51 -60 20 -72 20 -120
9 -63 -15 -66 -18 -88 -86 -15 -46 -16 -163 -14 -1318 l3 -1268 28 -24 c22
-18 40 -24 78 -24 77 0 147 27 165 63 9 16 30 44 47 63 18 18 42 46 54 62 14
19 49 40 105 61 81 33 84 33 213 29 127 -5 131 -5 192 -40 84 -49 286 -252
340 -343 46 -78 133 -275 133 -303 0 -25 49 -172 66 -199 18 -29 18 -126 0
-161 -8 -15 -28 -76 -46 -137 -30 -106 -62 -180 -102 -237 -21 -30 -176 -126
-253 -156 -27 -11 -65 -28 -84 -38 -56 -28 -163 -24 -231 9 -60 28 -161 61
-225 73 -22 4 -49 13 -60 20 -11 7 -45 22 -75 34 -30 12 -85 36 -121 55 -64
33 -201 75 -244 75 -30 0 -117 -30 -136 -47 -9 -7 -24 -39 -33 -71 -16 -52
-17 -123 -14 -817 l3 -760 28 -80 c15 -44 35 -96 45 -115 15 -31 18 -83 22
-420 5 -354 7 -389 26 -435 16 -40 28 -54 59 -69 85 -41 207 -30 320 27 53 27
70 31 145 31 62 0 94 -5 118 -18 37 -19 175 -66 195 -66 7 0 50 -18 95 -40 71
-34 99 -56 202 -159 188 -189 226 -238 265 -353 20 -58 26 -91 23 -130 -8 -97
-131 -329 -217 -412 -28 -27 -51 -52 -51 -57 0 -18 -173 -104 -295 -146 -229
-80 -338 -81 -511 -8 -58 25 -122 57 -142 70 -88 60 -249 82 -342 47 -39 -15
-47 -24 -65 -67 -19 -47 -20 -79 -25 -585 l-5 -535 -26 -50 c-60 -113 -59
-105 -58 -802 1 -749 -2 -724 88 -757 48 -17 59 -18 105 -6 41 10 63 25 113
75 34 34 68 78 77 98 27 66 90 141 140 165 57 29 174 39 257 24 93 -18 163
-68 338 -242 119 -119 171 -178 198 -228 l38 -67 0 -275 0 -275 -46 -100 c-26
-55 -69 -136 -96 -180 -42 -68 -58 -84 -104 -108 -29 -15 -58 -32 -64 -36 -35
-28 -161 -29 -219 -2 -23 11 -96 42 -163 70 l-122 51 -53 -23 c-62 -28 -131
-99 -168 -175 -14 -28 -29 -51 -35 -52 -14 0 -265 -258 -265 -273 0 -6 -18
-41 -40 -77 -51 -82 -76 -170 -84 -288 -3 -50 -13 -109 -22 -130 -8 -20 -27
-71 -42 -112 l-26 -75 -4 -810 c-3 -752 -2 -814 15 -865 23 -73 26 -77 89 -95
88 -25 233 -21 327 10 43 14 88 32 100 39 12 8 63 20 112 26 101 13 210 42
270 72 29 15 59 21 115 21 64 0 85 -5 142 -31 37 -18 109 -43 160 -56 51 -13
119 -38 151 -55 116 -63 244 -221 307 -377 13 -33 29 -68 36 -79 21 -32 33
-142 29 -260 -3 -104 -6 -117 -46 -210 -44 -106 -127 -251 -156 -277 -82 -71
-329 -184 -426 -194 -71 -7 -187 9 -221 31 -11 7 -45 23 -74 34 -79 31 -223
120 -255 157 -50 60 -187 81 -292 46 -48 -16 -51 -20 -68 -72 -43 -127 -30
-272 37 -410 l31 -65 5 -335 c6 -362 7 -371 68 -499 l27 -56 0 -355 c0 -310
-2 -362 -17 -412 -10 -31 -18 -62 -18 -70 0 -8 22 -23 48 -34 46 -20 50 -20
108 -4 32 9 79 27 103 39 58 30 170 39 226 18 22 -9 69 -26 105 -39 152 -57
387 -263 472 -416 21 -37 54 -116 73 -177 20 -60 44 -126 53 -145 15 -30 17
-71 17 -310 l0 -275 -31 -65 c-17 -36 -35 -76 -39 -90 -37 -122 -280 -394
-413 -461 -67 -34 -68 -34 -202 -34 -127 1 -140 3 -225 33 -49 18 -114 42
-142 52 -108 39 -171 102 -223 225 -12 28 -29 66 -39 85 -10 19 -21 53 -25 75
-12 67 -39 145 -56 160 -8 7 -36 19 -62 26 -41 11 -55 10 -102 -4 -54 -17 -55
-18 -75 -79 -21 -62 -21 -70 -20 -1372 l0 -1311 22 -59 c21 -56 25 -60 72 -77
34 -12 82 -18 154 -18 88 -1 117 3 179 25 42 14 87 33 101 42 19 13 47 17 111
17 71 -1 93 -5 135 -26 48 -25 152 -59 225 -74 19 -4 85 -32 146 -61 128 -61
205 -125 249 -206 15 -29 40 -69 55 -88 90 -118 159 -306 145 -398 -17 -126
-46 -243 -73 -297 -16 -33 -33 -71 -37 -85 -10 -32 -91 -168 -119 -198 -29
-32 -169 -116 -236 -141 -30 -12 -68 -29 -85 -39 -25 -14 -57 -17 -205 -17
l-175 0 -75 39 c-96 50 -175 115 -265 221 -22 26 -70 79 -108 119 -57 62 -74
74 -116 84 -41 9 -58 8 -102 -6 -50 -16 -55 -20 -73 -67 -17 -44 -20 -86 -25
-340 -5 -254 -8 -294 -23 -318 -10 -14 -29 -61 -43 -103 l-25 -77 0 -456 c0
-463 -8 -603 -36 -647 -9 -13 -26 -56 -39 -96 -20 -68 -21 -77 -8 -123 19 -62
117 -166 178 -186 33 -11 335 -15 1660 -19 l1620 -5 100 -38 c55 -20 111 -40
125 -44 14 -4 450 -10 970 -13 844 -4 949 -7 970 -21 14 -9 63 -29 110 -45
l85 -29 685 -5 685 -6 105 -39 105 -40 690 -5 c678 -6 732 -9 768 -39 7 -5 41
-20 77 -33 64 -23 73 -23 570 -28 452 -5 510 -8 550 -24 25 -10 106 -29 180
-43 l135 -26 930 -6 930 -6 52 -28 c112 -61 101 -60 788 -66 l630 -6 50 -26
c100 -53 95 -52 675 -59 l545 -7 115 -43 115 -44 470 -6 c418 -4 474 -7 505
-22 19 -10 71 -30 115 -45 l80 -27 465 -6 465 -5 56 -28 c129 -63 96 -60 789
-66 628 -6 635 -6 670 -28 19 -11 64 -31 99 -42 62 -20 83 -21 690 -22 344 0
658 -4 696 -9 39 -4 117 -25 175 -46 l105 -39 795 -5 c437 -3 806 -10 820 -15
14 -4 34 -14 45 -21 11 -7 56 -24 100 -38 l79 -26 721 0 c642 0 727 2 771 16
62 21 74 31 92 74 8 19 27 53 42 76 16 22 39 70 52 105 l23 64 5 690 c5 654 6
692 24 725 11 19 30 69 44 110 l26 75 6 780 6 780 28 70 c60 152 58 111 56
957 -1 787 3 882 36 934 8 11 24 47 36 80 23 59 23 64 28 744 l5 685 29 55
c63 120 60 57 66 1185 5 988 6 1031 24 1065 11 19 31 69 44 110 l26 75 5 960
6 960 23 43 c12 23 32 71 42 105 19 59 20 98 20 947 0 487 4 924 9 971 6 54
18 103 31 129 58 113 54 34 60 1300 l5 1165 32 70 c17 39 37 88 44 110 11 32
15 306 19 1400 l5 1360 32 70 c61 135 57 58 63 1270 l5 1120 21 40 c12 22 30
65 40 95 18 53 19 134 24 1850 l5 1795 31 70 c69 152 64 36 64 1592 0 1406 0
1410 -21 1474 -12 35 -30 81 -40 102 -25 48 -38 152 -39 303 0 140 -18 208
-81 313 -21 36 -39 70 -39 77 0 21 -411 426 -449 441 -20 8 -54 28 -77 43 -41
29 -164 73 -238 86 -22 4 -54 15 -70 25 -71 41 -159 60 -306 68 -126 7 -152
12 -195 33 -96 48 -150 58 -332 58 -187 1 -305 13 -339 34 -12 9 -50 25 -85
38 -60 21 -83 23 -399 28 l-335 5 -60 28 c-131 63 -109 60 -635 66 l-485 6
-57 28 c-135 66 -128 66 -781 67 -326 0 -608 4 -628 9 -19 4 -46 15 -60 24
-13 8 -46 23 -74 34 -47 17 -118 18 -1315 23 -1154 5 -1269 6 -1305 22 -22 9
-78 30 -124 47 l-83 31 -1612 -2 -1611 -3 -70 -27 c-38 -15 -90 -35 -115 -45
-42 -17 -127 -18 -1510 -23 -1391 -5 -1468 -6 -1515 -23 -27 -11 -66 -29 -85
-40 l-35 -22 -1020 -5 -1020 -6 -79 -27 c-43 -16 -90 -36 -104 -45 -24 -16
-153 -17 -1772 -17 -1695 0 -1746 1 -1780 19 -19 10 -66 30 -105 44 l-70 25
-575 6 -575 6 -44 23 c-97 52 -114 55 -376 62 -225 7 -255 10 -305 30 -152 61
-158 62 -445 70 -266 7 -300 11 -363 44 -18 9 -60 25 -95 36 -55 17 -90 20
-302 19 -195 -1 -249 -5 -285 -18z m299 -236 c908 -352 1967 -572 3161 -655
397 -27 538 -32 1167 -37 674 -5 1084 2 1748 32 356 17 423 20 1320 70 1631
90 2243 105 4205 105 2300 0 4295 -53 6645 -175 968 -51 1516 -86 2750 -175
1100 -79 1149 -81 1775 -71 213 4 271 1 354 -13 265 -48 392 -143 461 -346 74
-218 82 -460 30 -965 -42 -415 -114 -2079 -171 -3955 -9 -305 -18 -557 -20
-559 -11 -12 -1872 87 -2513 135 -112 8 -206 13 -208 10 -8 -8 52 -15 342 -41
808 -71 1543 -117 2070 -130 127 -3 248 -8 270 -11 l40 -4 -3 -83 c-1 -45 -16
-509 -32 -1032 -85 -2661 -213 -6140 -355 -9645 -74 -1814 -165 -3984 -168
-3987 -10 -10 -1754 86 -2364 130 -95 7 -173 9 -173 5 0 -5 7 -8 16 -8 9 0
163 -13 343 -30 687 -63 1746 -130 2061 -130 52 0 100 -4 106 -8 12 -7 -2
-359 -86 -2212 -94 -2074 -265 -5439 -296 -5833 l-6 -78 -97 6 c-53 3 -251 12
-441 21 -434 18 -1305 64 -2090 109 -2025 116 -2449 138 -3790 195 -2820 119
-3723 173 -5725 340 -3762 314 -5788 438 -8335 511 -195 5 -834 13 -1419 16
l-1063 6 7 251 c21 727 30 995 35 999 3 3 55 -19 115 -49 61 -29 155 -66 210
-81 94 -26 112 -28 295 -28 168 0 206 3 276 22 427 114 709 395 818 817 129
496 -32 976 -437 1299 -169 136 -391 239 -620 289 -86 19 -134 22 -305 23
l-202 0 -1 185 c-1 102 -4 435 -8 740 -4 305 -6 556 -5 558 1 2 42 -10 91 -27
127 -43 201 -55 348 -55 148 0 260 19 393 65 417 146 697 475 792 932 104 499
-26 991 -346 1311 -97 97 -185 159 -306 216 -122 56 -185 71 -338 77 -160 6
-262 -13 -388 -74 -42 -20 -81 -39 -86 -41 -15 -8 1 398 24 593 11 99 32 254
46 345 13 91 38 257 55 370 17 113 32 206 33 207 2 2 40 -11 85 -27 187 -68
442 -79 643 -27 326 85 608 301 759 582 50 93 92 207 115 315 27 127 25 380
-5 520 -81 385 -321 683 -692 859 -347 165 -682 189 -1127 84 l-23 -6 6 244
c19 788 34 1118 56 1324 16 144 16 143 87 142 48 0 69 5 106 27 48 28 90 81
102 129 4 17 12 26 19 23 100 -38 159 -49 285 -53 164 -6 265 14 404 81 282
133 470 412 517 763 19 141 7 374 -26 517 -108 475 -382 866 -720 1031 -147
72 -202 86 -370 92 -117 4 -153 2 -223 -15 l-83 -20 6 122 c3 66 12 308 20
536 8 228 17 504 21 613 6 177 9 197 23 191 9 -4 66 -21 126 -37 147 -39 370
-48 524 -23 258 44 481 148 655 306 325 298 422 787 236 1187 -153 329 -488
584 -884 674 -105 24 -331 36 -418 22 l-57 -10 -6 36 c-9 60 -43 443 -59 671
-24 330 -35 583 -43 913 l-6 301 34 -21 c52 -32 234 -108 327 -137 180 -56
403 -72 560 -40 328 67 560 308 657 680 36 137 48 243 48 414 0 171 -16 286
-59 421 -127 406 -476 751 -864 853 -101 27 -269 32 -371 12 -46 -10 -106 -27
-132 -38 -26 -11 -49 -19 -51 -17 -2 2 -6 379 -9 837 -5 772 -4 833 11 828 10
-3 77 -28 149 -56 280 -107 547 -156 793 -146 223 9 368 45 566 141 315 153
539 415 626 733 17 62 21 106 22 232 0 138 -3 166 -26 250 -52 186 -141 341
-280 486 -242 252 -547 386 -908 401 -308 12 -620 -58 -1000 -225 l-135 -59
-7 201 c-4 110 -12 334 -18 496 -10 301 -28 542 -55 755 -16 127 -59 383 -75
450 -10 44 -12 65 -6 65 3 0 68 -25 145 -55z"/>
<path d="M16260 34203 c0 -16 578 -116 1025 -178 1135 -156 2287 -237 3890
-275 563 -13 1942 -30 2260 -28 280 2 268 3 -245 18 -2100 61 -4124 184 -5860
355 -370 37 -968 101 -1032 111 -21 3 -38 2 -38 -3z"/>
<path d="M23883 33713 c15 -2 39 -2 55 0 15 2 2 4 -28 4 -30 0 -43 -2 -27 -4z"/>
<path d="M24618 33703 c18 -2 45 -2 60 0 15 2 0 4 -33 4 -33 0 -45 -2 -27 -4z"/>
<path d="M25285 33690 c542 -12 2132 -32 2225 -28 47 2 -16 5 -140 6 -124 1
-490 6 -815 12 -324 5 -819 11 -1100 13 -435 4 -460 4 -170 -3z"/>
<path d="M27843 33653 c76 -2 198 -2 270 0 73 1 11 3 -138 3 -148 0 -208 -2
-132 -3z"/>
<path d="M28673 33643 c9 -2 23 -2 30 0 6 3 -1 5 -18 5 -16 0 -22 -2 -12 -5z"/>
<path d="M30172 33623 c59 -2 158 -2 220 0 62 1 14 3 -107 3 -121 0 -172 -2
-113 -3z"/>
<path d="M30661 33616 c2 -2 216 -5 474 -8 266 -3 383 -2 270 2 -217 8 -751
12 -744 6z"/>
<path d="M15580 30932 c0 -17 19 -21 228 -40 555 -53 958 -72 1525 -72 385 0
843 13 925 26 17 3 32 8 32 12 0 4 -339 7 -753 7 -476 0 -838 5 -987 13 -383
20 -855 55 -937 68 -27 4 -33 2 -33 -14z"/>
<path d="M19743 30833 c9 -2 25 -2 35 0 9 3 1 5 -18 5 -19 0 -27 -2 -17 -5z"/>
<path d="M19818 30833 c12 -2 30 -2 40 0 9 3 -1 5 -23 4 -22 0 -30 -2 -17 -4z"/>
<path d="M20068 30823 c29 -2 74 -2 100 0 26 2 2 3 -53 3 -55 0 -76 -1 -47 -3z"/>
<path d="M20368 30813 c34 -2 88 -2 120 0 31 2 3 3 -63 3 -66 0 -92 -1 -57 -3z"/>
<path d="M20673 30803 c37 -2 97 -2 135 0 37 2 6 3 -68 3 -74 0 -105 -1 -67
-3z"/>
<path d="M20972 30793 c37 -2 100 -2 140 0 40 1 10 3 -67 3 -77 0 -110 -1 -73
-3z"/>
<path d="M21278 30783 c29 -2 74 -2 100 0 26 2 2 3 -53 3 -55 0 -76 -1 -47 -3z"/>
<path d="M23548 30713 c6 -2 18 -2 25 0 6 3 1 5 -13 5 -14 0 -19 -2 -12 -5z"/>
<path d="M23618 30703 c6 -2 18 -2 25 0 6 3 1 5 -13 5 -14 0 -19 -2 -12 -5z"/>
<path d="M23683 30693 c9 -2 23 -2 30 0 6 3 -1 5 -18 5 -16 0 -22 -2 -12 -5z"/>
<path d="M31655 30689 c-429 -13 -1015 -36 -1845 -74 -1755 -80 -1922 -86
-2845 -92 -1163 -8 -1826 18 -2645 102 -129 13 -264 27 -300 29 -133 11 27
-12 305 -43 993 -110 2085 -153 3365 -131 685 11 908 17 1935 55 1946 72 2254
79 3274 72 454 -3 923 -10 1041 -16 546 -27 1023 -63 1419 -106 295 -33 291
-33 291 4 0 17 -5 33 -11 36 -23 15 -536 72 -929 104 -250 21 -440 33 -795 52
-253 14 -1888 20 -2260 8z"/>
<path d="M23753 30683 c9 -2 25 -2 35 0 9 3 1 5 -18 5 -19 0 -27 -2 -17 -5z"/>
<path d="M23823 30673 c9 -2 25 -2 35 0 9 3 1 5 -18 5 -19 0 -27 -2 -17 -5z"/>
<path d="M23898 30663 c12 -2 30 -2 40 0 9 3 -1 5 -23 4 -22 0 -30 -2 -17 -4z"/>
<path d="M15482 27328 c-16 -16 -15 -53 2 -67 38 -32 1203 -135 2036 -180
1328 -74 2063 -85 5100 -76 2377 6 2980 3 4130 -25 1384 -34 2891 -91 4620
-175 949 -47 4155 -217 4303 -230 56 -4 69 -2 74 11 3 8 2 19 -3 24 -13 13
-1032 81 -2034 135 -1999 108 -3968 177 -7275 255 -1284 30 -2004 39 -3935 45
-2195 7 -2990 19 -3985 60 -1025 43 -1979 114 -2802 210 -117 14 -214 25 -216
25 -2 0 -8 -5 -15 -12z"/>
<path d="M15860 23491 c0 -6 4 -12 8 -15 11 -6 473 -52 777 -76 675 -53 1281
-83 2600 -125 883 -28 1093 -36 1845 -70 743 -33 1815 -78 2900 -120 498 -19
1191 -46 1540 -60 3417 -133 6019 -197 9125 -225 887 -8 1042 -7 1054 5 11 11
12 17 3 28 -10 11 -87 15 -399 21 -1046 18 -4145 86 -6223 136 -3517 85 -4806
127 -7520 240 -1219 51 -1321 57 -2785 150 -694 44 -1232 74 -1590 90 -653 28
-1335 39 -1335 21z"/>
<path d="M15905 19399 c11 -5 121 -26 245 -48 1385 -243 2798 -358 4910 -401
687 -14 2441 -32 2448 -25 3 3 -51 5 -119 5 -212 0 -1302 37 -2064 70 -1870
82 -3662 215 -5168 385 -120 14 -230 25 -245 24 -24 0 -25 -1 -7 -10z"/>
<path d="M24458 18903 c56 -2 148 -2 205 0 56 1 10 3 -103 3 -113 0 -159 -2
-102 -3z"/>
<path d="M25210 18890 c195 -4 659 -10 1030 -13 493 -4 563 -3 260 3 -228 4
-692 10 -1030 12 -429 4 -508 4 -260 -2z"/>
<path d="M27083 18863 c93 -2 241 -2 330 0 89 1 14 3 -168 3 -181 0 -254 -2
-162 -3z"/>
<path d="M27893 18853 c32 -2 81 -2 110 0 29 2 3 3 -58 3 -60 0 -84 -1 -52 -3z"/>
<path d="M28108 18853 c17 -2 47 -2 65 0 17 2 3 4 -33 4 -36 0 -50 -2 -32 -4z"/>
<path d="M29448 18833 c12 -2 32 -2 45 0 12 2 2 4 -23 4 -25 0 -35 -2 -22 -4z"/>
<path d="M29618 18833 c23 -2 59 -2 80 0 20 2 1 4 -43 4 -44 0 -61 -2 -37 -4z"/>
<path d="M30148 18823 c72 -2 192 -2 265 0 72 1 13 3 -133 3 -146 0 -205 -2
-132 -3z"/>
<path d="M30630 18814 c80 -7 600 -8 600 -1 0 4 -143 6 -317 5 -175 -1 -302
-3 -283 -4z"/>
<path d="M15667 15403 c-24 -24 -13 -26 323 -58 840 -80 1504 -115 3220 -170
774 -25 986 -33 2030 -80 1653 -73 5361 -216 6760 -260 2335 -73 5592 -134
7176 -135 301 0 332 2 338 17 4 9 3 20 -2 25 -4 4 -550 19 -1212 33 -5897 123
-9120 208 -11580 305 -2275 90 -2600 107 -4205 210 -1079 69 -1632 95 -2315
110 -539 12 -525 12 -533 3z"/>
</g>
</svg>
